# xmcd CD database file
#
# Track frame offsets:
#	150
#	17651
#	31821
#	51285
#	70334
#	84841
#	99123
#	112025
#	154447
#	172134
#	187485
#
# Disc length: 3219 seconds
#
# Revision: 0
# Processed by: cddbd v1.5.2PL0 Copyright (c) Steve Scherf et al.
# Submitted via: CDex 1.51
#
DISCID=920c910b
DTITLE=SWR Big Band - The World's Biggest Big Band
DYEAR=2011
DGENRE=Jazz
TTITLE0=Strike up the band
TTITLE1=Birth of the blues
TTITLE2=March of the toys
TTITLE3=That old black magic
TTITLE4=Autumn leaves
TTITLE5=Dearly beloved
TTITLE6=Stardust
TTITLE7=James Bond Medley
TTITLE8=Jumping at the woodside
TTITLE9=The shadow of your smile
TTITLE10=Ol´man river
EXTD=YEAR: 2011
EXTT0=
EXTT1=
EXTT2=
EXTT3=
EXTT4=
EXTT5=
EXTT6=
EXTT7=
EXTT8=
EXTT9=
EXTT10=
PLAYORDER=
